<svg id="visual" viewBox="0 0 900 600" width="900" height="600" xmlns="http://www.w3.org/2000/svg" xmlns:xlink="http://www.w3.org/1999/xlink" version="1.1"><rect x="0" y="0" width="900" height="600" fill="#f5c899"></rect><path d="M0 369L47 389L95 339L142 361L189 383L237 391L284 340L332 358L379 334L426 380L474 380L521 370L568 391L616 392L663 380L711 348L758 391L805 382L853 356L900 365L900 601L853 601L805 601L758 601L711 601L663 601L616 601L568 601L521 601L474 601L426 601L379 601L332 601L284 601L237 601L189 601L142 601L95 601L47 601L0 601Z" fill="#ff8b2b"></path><path d="M0 412L47 413L95 418L142 399L189 398L237 383L284 360L332 363L379 369L426 394L474 369L521 393L568 403L616 372L663 401L711 375L758 420L805 412L853 403L900 412L900 601L853 601L805 601L758 601L711 601L663 601L616 601L568 601L521 601L474 601L426 601L379 601L332 601L284 601L237 601L189 601L142 601L95 601L47 601L0 601Z" fill="#f07c25"></path><path d="M0 415L47 396L95 444L142 426L189 433L237 410L284 427L332 400L379 390L426 430L474 439L521 400L568 439L616 430L663 425L711 409L758 395L805 425L853 417L900 394L900 601L853 601L805 601L758 601L711 601L663 601L616 601L568 601L521 601L474 601L426 601L379 601L332 601L284 601L237 601L189 601L142 601L95 601L47 601L0 601Z" fill="#e26d1f"></path><path d="M0 418L47 432L95 462L142 443L189 466L237 419L284 468L332 437L379 443L426 427L474 440L521 436L568 464L616 423L663 467L711 467L758 447L805 438L853 433L900 423L900 601L853 601L805 601L758 601L711 601L663 601L616 601L568 601L521 601L474 601L426 601L379 601L332 601L284 601L237 601L189 601L142 601L95 601L47 601L0 601Z" fill="#d35e1a"></path><path d="M0 458L47 445L95 469L142 483L189 443L237 454L284 465L332 452L379 489L426 463L474 454L521 479L568 490L616 449L663 450L711 486L758 459L805 487L853 491L900 463L900 601L853 601L805 601L758 601L711 601L663 601L616 601L568 601L521 601L474 601L426 601L379 601L332 601L284 601L237 601L189 601L142 601L95 601L47 601L0 601Z" fill="#c45014"></path><path d="M0 492L47 509L95 493L142 510L189 496L237 474L284 489L332 490L379 478L426 472L474 487L521 478L568 514L616 476L663 482L711 498L758 497L805 501L853 480L900 496L900 601L853 601L805 601L758 601L711 601L663 601L616 601L568 601L521 601L474 601L426 601L379 601L332 601L284 601L237 601L189 601L142 601L95 601L47 601L0 601Z" fill="#b5420f"></path><path d="M0 504L47 532L95 523L142 517L189 515L237 530L284 536L332 533L379 533L426 501L474 506L521 508L568 529L616 528L663 503L711 524L758 503L805 513L853 527L900 525L900 601L853 601L805 601L758 601L711 601L663 601L616 601L568 601L521 601L474 601L426 601L379 601L332 601L284 601L237 601L189 601L142 601L95 601L47 601L0 601Z" fill="#a63409"></path><path d="M0 538L47 560L95 532L142 527L189 553L237 549L284 542L332 557L379 537L426 548L474 552L521 535L568 555L616 542L663 558L711 529L758 545L805 537L853 556L900 543L900 601L853 601L805 601L758 601L711 601L663 601L616 601L568 601L521 601L474 601L426 601L379 601L332 601L284 601L237 601L189 601L142 601L95 601L47 601L0 601Z" fill="#962505"></path><path d="M0 565L47 565L95 560L142 578L189 568L237 581L284 564L332 575L379 567L426 568L474 570L521 556L568 578L616 565L663 562L711 555L758 574L805 554L853 565L900 569L900 601L853 601L805 601L758 601L711 601L663 601L616 601L568 601L521 601L474 601L426 601L379 601L332 601L284 601L237 601L189 601L142 601L95 601L47 601L0 601Z" fill="#871400"></path></svg>